<?xml version="1.0" encoding="utf-8"?>
<!-- Generator: Adobe Illustrator 16.0.0, SVG Export Plug-In . SVG Version: 6.00 Build 0)  -->
<!DOCTYPE svg PUBLIC "-//W3C//DTD SVG 1.1//EN" "http://www.w3.org/Graphics/SVG/1.1/DTD/svg11.dtd">
<svg version="1.1" id="Layer_1" xmlns="http://www.w3.org/2000/svg" xmlns:xlink="http://www.w3.org/1999/xlink" x="0px" y="0px"
	 width="17.601px" height="19.2px" viewBox="0 0 17.601 19.2" enable-background="new 0 0 17.601 19.2" xml:space="preserve">
<g>
	<path fill="#152A31" d="M2.64,0H0.8C0.357,0,0,0.358,0,0.8s0.357,0.8,0.8,0.8h1.84l2.63,7.234c-1.307,0.219-2.188,1.457-1.97,2.764
		c0.19,1.131,1.153,1.97,2.3,2.002H15.2c0.441,0,0.8-0.358,0.8-0.8S15.642,12,15.2,12H5.6c-0.441,0-0.8-0.358-0.8-0.8
		s0.358-0.8,0.8-0.8h7.042c1.39-0.004,2.632-0.865,3.124-2.164L17.55,3.48c0.155-0.414-0.056-0.875-0.469-1.029
		C16.991,2.417,16.896,2.4,16.8,2.4h-12c-0.054,0-0.106,0.006-0.16,0.016L4.144,1.054C3.914,0.421,3.313,0,2.64,0 M15.64,4
		l-1.372,3.674c-0.256,0.677-0.902,1.125-1.626,1.126H6.96L5.214,4H15.64z"/>
	<path fill="#152A31" d="M4,16.8c0,1.325,1.075,2.4,2.4,2.4S8.8,18.125,8.8,16.8c0-1.326-1.074-2.4-2.399-2.4S4,15.475,4,16.8
		 M7.2,16.8c0,0.441-0.358,0.8-0.8,0.8c-0.442,0-0.801-0.359-0.801-0.8C5.6,16.358,5.958,16,6.4,16C6.842,16,7.2,16.358,7.2,16.8"/>
	<path fill="#152A31" d="M13.6,14.4c-1.325,0-2.399,1.075-2.399,2.4s1.074,2.4,2.399,2.4s2.4-1.075,2.4-2.4S14.925,14.4,13.6,14.4
		 M13.6,17.6c-0.441,0-0.8-0.358-0.8-0.8s0.358-0.8,0.8-0.8c0.442,0,0.801,0.358,0.801,0.8S14.042,17.6,13.6,17.6"/>
</g>
</svg>
