<?xml version="1.0" encoding="utf-8"?>
<!-- Generator: Adobe Illustrator 16.0.0, SVG Export Plug-In . SVG Version: 6.00 Build 0)  -->
<!DOCTYPE svg PUBLIC "-//W3C//DTD SVG 1.1//EN" "http://www.w3.org/Graphics/SVG/1.1/DTD/svg11.dtd">
<svg version="1.1" id="Layer_1" xmlns="http://www.w3.org/2000/svg" xmlns:xlink="http://www.w3.org/1999/xlink" x="0px" y="0px"
	 width="81.294px" height="17.999px" viewBox="0 0 81.294 17.999" enable-background="new 0 0 81.294 17.999" xml:space="preserve">
<g>
	<g>
		<defs>
			<path id="SVGID_1_" d="M22.968,15.2l2.8,2.799h5.751l-5.675-5.675L22.968,15.2z M104.325,15.2l2.798,2.799h5.753l-5.676-5.675
				L104.325,15.2z M185.681,15.2l2.798,2.799h5.752l-5.674-5.675L185.681,15.2z M267.036,15.2l2.8,2.799h5.751l-5.674-5.675
				L267.036,15.2z M348.392,15.2l2.8,2.799h5.751l-5.675-5.675L348.392,15.2z M429.749,15.2l2.798,2.799h5.752l-5.675-5.675
				L429.749,15.2z M511.105,15.2l2.798,2.799h5.752l-5.675-5.675L511.105,15.2z M592.46,15.2l2.799,2.799h5.752l-5.674-5.675
				L592.46,15.2z M673.815,15.2l2.8,2.799h5.752l-5.675-5.675L673.815,15.2z M755.172,15.2l2.799,2.799h5.752l-5.675-5.675
				L755.172,15.2z M836.528,15.2l2.797,2.799h5.752l-5.674-5.675L836.528,15.2z M917.882,15.2l2.799,2.799h5.754l-5.676-5.675
				L917.882,15.2z M999.239,15.2l2.799,2.799h5.752l-5.676-5.675L999.239,15.2z M1080.595,15.2l2.799,2.799h5.752l-5.676-5.675
				L1080.595,15.2z M1161.95,15.2l2.799,2.799h5.752l-5.674-5.675L1161.95,15.2z M0,11.728c3.364,0,6.102,2.738,6.102,6.102
				c0,0.056-0.001,0.113-0.003,0.169h4.068c0.001-0.056,0.002-0.113,0.002-0.169C10.169,12.223,5.607,7.66,0,7.66V11.728z
				 M71.186,17.83c0,0.056,0.001,0.113,0.002,0.169h4.069c-0.002-0.056-0.003-0.113-0.003-0.169c0-3.364,2.737-6.102,6.101-6.102
				c3.365,0,6.103,2.738,6.103,6.102c0,0.056-0.001,0.113-0.002,0.169h4.069c0.001-0.056,0.001-0.113,0.001-0.169
				c0-5.607-4.563-10.17-10.171-10.17C75.748,7.66,71.186,12.223,71.186,17.83 M152.542,17.83c0,0.056,0,0.113,0.001,0.169h4.069
				c-0.002-0.056-0.002-0.113-0.002-0.169c0-3.364,2.737-6.102,6.102-6.102c3.365,0,6.102,2.738,6.102,6.102
				c0,0.056-0.001,0.113-0.002,0.169h4.068c0.001-0.056,0.001-0.113,0.001-0.169c0-5.607-4.562-10.17-10.169-10.17
				C157.104,7.66,152.542,12.223,152.542,17.83 M233.899,17.83c0,0.056,0,0.113,0.001,0.169h4.069
				c-0.001-0.056-0.002-0.113-0.002-0.169c0-3.364,2.736-6.102,6.101-6.102c3.365,0,6.101,2.738,6.101,6.102
				c0,0.056,0,0.113-0.002,0.169h4.069c0.001-0.056,0.002-0.113,0.002-0.169c0-5.607-4.562-10.17-10.17-10.17
				C238.461,7.66,233.899,12.223,233.899,17.83 M315.254,17.83c0,0.056,0.001,0.113,0.001,0.169h4.069
				c-0.001-0.056-0.002-0.113-0.002-0.169c0-3.364,2.737-6.102,6.102-6.102c3.364,0,6.101,2.738,6.101,6.102
				c0,0.056-0.001,0.113-0.003,0.169h4.069c0.001-0.056,0.002-0.113,0.002-0.169c0-5.607-4.562-10.17-10.169-10.17
				C319.816,7.66,315.254,12.223,315.254,17.83 M396.61,17.83c0,0.056,0.001,0.113,0.002,0.169h4.069
				c-0.002-0.056-0.003-0.113-0.003-0.169c0-3.364,2.737-6.102,6.101-6.102c3.365,0,6.103,2.738,6.103,6.102
				c0,0.056-0.002,0.113-0.004,0.169h4.07c0-0.056,0.001-0.113,0.001-0.169c0-5.607-4.562-10.17-10.17-10.17
				C401.172,7.66,396.61,12.223,396.61,17.83 M477.965,17.83c0,0.056,0.001,0.113,0.002,0.169h4.069
				c-0.002-0.056-0.002-0.113-0.002-0.169c0-3.364,2.736-6.102,6.101-6.102c3.365,0,6.103,2.738,6.103,6.102
				c0,0.056-0.001,0.113-0.002,0.169h4.068c0.001-0.056,0.001-0.113,0.001-0.169c0-5.607-4.563-10.17-10.17-10.17
				C482.527,7.66,477.965,12.223,477.965,17.83 M559.323,17.83c0,0.056,0,0.113,0,0.169h4.068c-0.001-0.056-0.002-0.113-0.002-0.169
				c0-3.364,2.737-6.102,6.103-6.102s6.101,2.738,6.101,6.102c0,0.056,0,0.113-0.002,0.169h4.069
				c0.001-0.056,0.001-0.113,0.001-0.169c0-5.607-4.562-10.17-10.169-10.17S559.323,12.223,559.323,17.83 M640.678,17.83
				c0,0.056,0,0.113,0.001,0.169h4.069c-0.001-0.056-0.002-0.113-0.002-0.169c0-3.364,2.737-6.102,6.102-6.102
				s6.102,2.738,6.102,6.102c0,0.056-0.001,0.113-0.003,0.169h4.068c0.001-0.056,0.002-0.113,0.002-0.169
				c0-5.607-4.562-10.17-10.169-10.17S640.678,12.223,640.678,17.83 M722.034,17.83c0,0.056,0.001,0.113,0.002,0.169h4.069
				c-0.002-0.056-0.004-0.113-0.004-0.169c0-3.364,2.737-6.102,6.102-6.102c3.365,0,6.102,2.738,6.102,6.102
				c0,0.056-0.001,0.113-0.003,0.169h4.07c0-0.056,0.001-0.113,0.001-0.169c0-5.607-4.563-10.17-10.17-10.17
				S722.034,12.223,722.034,17.83 M803.389,17.83c0,0.056,0.001,0.113,0.002,0.169h4.069c-0.002-0.056-0.004-0.113-0.004-0.169
				c0-3.364,2.738-6.102,6.102-6.102c3.365,0,6.104,2.738,6.104,6.102c0,0.056-0.002,0.113-0.002,0.169h4.066
				c0.002-0.056,0.002-0.113,0.002-0.169c0-5.607-4.563-10.17-10.17-10.17S803.389,12.223,803.389,17.83 M884.745,17.83
				c0,0.056,0,0.113,0.002,0.169h4.066c0-0.056-0.002-0.113-0.002-0.169c0-3.364,2.738-6.102,6.104-6.102s6.1,2.738,6.1,6.102
				c0,0.056,0,0.113-0.002,0.169h4.07c0-0.056,0-0.113,0-0.169c0-5.607-4.563-10.17-10.168-10.17
				C889.306,7.66,884.745,12.223,884.745,17.83 M966.101,17.83c0,0.056,0,0.113,0.002,0.169h4.066c0-0.056-0.002-0.113-0.002-0.169
				c0-3.364,2.738-6.102,6.104-6.102c3.363,0,6.102,2.738,6.102,6.102c0,0.056-0.002,0.113-0.004,0.169h4.07
				c0-0.056,0.002-0.113,0.002-0.169c0-5.607-4.563-10.17-10.17-10.17S966.101,12.223,966.101,17.83 M1047.456,17.83
				c0,0.056,0.002,0.113,0.002,0.169h4.068c-0.002-0.056-0.002-0.113-0.002-0.169c0-3.364,2.736-6.102,6.102-6.102
				s6.102,2.738,6.102,6.102c0,0.056,0,0.113-0.004,0.169h4.07c0-0.056,0.002-0.113,0.002-0.169c0-5.607-4.563-10.17-10.17-10.17
				S1047.456,12.223,1047.456,17.83 M1128.812,17.83c0,0.056,0.002,0.113,0.002,0.169h4.068c-0.002-0.056-0.002-0.113-0.002-0.169
				c0-3.364,2.736-6.102,6.102-6.102c3.363,0,6.102,2.738,6.102,6.102c0,0.056-0.002,0.113-0.002,0.169h4.068
				c0.002-0.056,0.002-0.113,0.002-0.169c0-5.607-4.563-10.17-10.17-10.17S1128.812,12.223,1128.812,17.83 M1210.169,17.83
				c0,0.056,0,0.113,0,0.169h4.068c0-0.056-0.002-0.113-0.002-0.169c0-3.364,2.736-6.102,6.102-6.102s6.104,2.738,6.104,6.102
				c0,0.056-0.002,0.113-0.002,0.169h4.066c0.002-0.056,0.002-0.113,0.002-0.169c0-5.607-4.563-10.17-10.17-10.17
				S1210.169,12.223,1210.169,17.83 M22.968,2.997l15.003,15.002h5.752L25.844,0.12L22.968,2.997z M35.172,2.997l15.002,15.002
				h5.753L38.049,0.12L35.172,2.997z M47.376,2.997l8.135,8.136l2.877-2.877L50.251,0.12L47.376,2.997z M104.325,2.997
				l15.001,15.002h5.752L107.2,0.12L104.325,2.997z M116.528,2.997l15.002,15.002h5.753L119.404,0.12L116.528,2.997z M128.732,2.997
				l8.135,8.136l2.876-2.877l-8.135-8.136L128.732,2.997z M185.681,2.997l15.001,15.002h5.752L188.557,0.12L185.681,2.997z
				 M197.883,2.997l15.004,15.002h5.751L200.76,0.12L197.883,2.997z M210.087,2.997l8.136,8.136l2.875-2.877l-8.134-8.136
				L210.087,2.997z M267.036,2.997l15.001,15.002h5.754L269.913,0.12L267.036,2.997z M279.241,2.997l15.001,15.002h5.752
				L282.115,0.12L279.241,2.997z M291.443,2.997l8.136,8.136l2.876-2.877l-8.136-8.136L291.443,2.997z M348.392,2.997l15.001,15.002
				h5.753L351.268,0.12L348.392,2.997z M360.596,2.997l15.002,15.002h5.752L363.473,0.12L360.596,2.997z M372.798,2.997l8.137,8.136
				l2.876-2.877l-8.136-8.136L372.798,2.997z M429.749,2.997l15.001,15.002h5.752L432.624,0.12L429.749,2.997z M441.951,2.997
				l15.002,15.002h5.754L444.828,0.12L441.951,2.997z M454.156,2.997l8.134,8.136l2.877-2.877L457.03,0.12L454.156,2.997z
				 M511.105,2.997l15.001,15.002h5.752L513.98,0.12L511.105,2.997z M523.307,2.997l15.002,15.002h5.754L526.184,0.12L523.307,2.997
				z M535.511,2.997l8.136,8.136l2.875-2.877l-8.134-8.136L535.511,2.997z M592.46,2.997l15.001,15.002h5.753L595.337,0.12
				L592.46,2.997z M604.664,2.997l15.002,15.002h5.752L607.539,0.12L604.664,2.997z M616.867,2.997l8.135,8.136l2.877-2.877
				l-8.136-8.136L616.867,2.997z M673.815,2.997l15.002,15.002h5.753L676.692,0.12L673.815,2.997z M686.02,2.997l15.002,15.002
				h5.752L688.895,0.12L686.02,2.997z M698.222,2.997l8.138,8.136l2.876-2.877l-8.137-8.136L698.222,2.997z M755.172,2.997
				l15.001,15.002h5.753L758.048,0.12L755.172,2.997z M767.375,2.997l15.002,15.002h5.753L770.252,0.12L767.375,2.997z
				 M779.58,2.997l8.134,8.136l2.877-2.877l-8.137-8.136L779.58,2.997z M836.528,2.997l15,15.002h5.752L839.403,0.12L836.528,2.997z
				 M848.729,2.997l15.004,15.002h5.752L851.606,0.12L848.729,2.997z M860.935,2.997l8.135,8.136l2.877-2.877L863.81,0.12
				L860.935,2.997z M917.882,2.997l15.002,15.002h5.752L920.759,0.12L917.882,2.997z M930.085,2.997l15.002,15.002h5.754
				L932.962,0.12L930.085,2.997z M942.29,2.997l8.135,8.136l2.875-2.877l-8.135-8.136L942.29,2.997z M999.239,2.997l15,15.002h5.752
				L1002.114,0.12L999.239,2.997z M1011.442,2.997l15.002,15.002h5.752L1014.317,0.12L1011.442,2.997z M1023.646,2.997l8.137,8.136
				l2.875-2.877l-8.135-8.136L1023.646,2.997z M1080.595,2.997l15,15.002h5.754L1083.47,0.12L1080.595,2.997z M1092.798,2.997
				l15.002,15.002h5.752L1095.675,0.12L1092.798,2.997z M1105.001,2.997l8.135,8.136l2.877-2.877l-8.137-8.136L1105.001,2.997z
				 M1161.95,2.997l15.002,15.002h5.752L1164.827,0.12L1161.95,2.997z M1174.153,2.997l15.002,15.002h5.752L1177.03,0.12
				L1174.153,2.997z M1186.358,2.997l8.135,8.136l2.875-2.877l-8.135-8.136L1186.358,2.997z M0,0v3.593
				c7.85,0,14.237,6.387,14.237,14.237c0,0.056,0,0.112-0.001,0.169h4.068c0.001-0.057,0.001-0.113,0.001-0.169
				c0-8.665-6.053-15.944-14.152-17.83H0z M77.203,0c-8.099,1.886-14.152,9.165-14.152,17.83c0,0.056,0,0.112,0.001,0.169h4.067
				c-0.001-0.057-0.001-0.113-0.001-0.169c0-7.85,6.387-14.237,14.237-14.237c7.851,0,14.238,6.387,14.238,14.237
				c0,0.056,0,0.112-0.001,0.169h4.068c0-0.057,0-0.113,0-0.169c0-8.665-6.052-15.944-14.152-17.83H77.203z M158.56,0
				c-8.1,1.886-14.153,9.165-14.153,17.83c0,0.056,0,0.112,0.001,0.169h4.068c0-0.057-0.001-0.113-0.001-0.169
				c0-7.85,6.387-14.237,14.237-14.237s14.237,6.387,14.237,14.237c0,0.056,0,0.112-0.001,0.169h4.068
				c0-0.057,0.001-0.113,0.001-0.169c0-8.665-6.054-15.944-14.152-17.83H158.56z M239.915,0c-8.099,1.886-14.153,9.165-14.153,17.83
				c0,0.056,0.001,0.112,0.001,0.169h4.069c-0.001-0.057-0.001-0.113-0.001-0.169c0-7.85,6.387-14.237,14.237-14.237
				s14.237,6.387,14.237,14.237c0,0.056-0.001,0.112-0.001,0.169h4.068c0.001-0.057,0.001-0.113,0.001-0.169
				c0-8.665-6.053-15.944-14.153-17.83H239.915z M321.271,0c-8.1,1.886-14.152,9.165-14.152,17.83c0,0.056,0,0.112,0,0.169h4.069
				c-0.001-0.057-0.001-0.113-0.001-0.169c0-7.85,6.386-14.237,14.237-14.237c7.85,0,14.237,6.387,14.237,14.237
				c0,0.056,0,0.112-0.001,0.169h4.068c0.001-0.057,0.001-0.113,0.001-0.169c0-8.665-6.053-15.944-14.152-17.83H321.271z M402.627,0
				c-8.099,1.886-14.153,9.165-14.153,17.83c0,0.056,0,0.112,0.001,0.169h4.068c-0.001-0.057-0.001-0.113-0.001-0.169
				c0-7.85,6.387-14.237,14.237-14.237c7.851,0,14.238,6.387,14.238,14.237c0,0.056,0,0.112-0.001,0.169h4.067
				c0.001-0.057,0.001-0.113,0.001-0.169c0-8.665-6.052-15.944-14.152-17.83H402.627z M483.983,0
				c-8.099,1.886-14.152,9.165-14.152,17.83c0,0.056,0,0.112,0.001,0.169h4.067c0-0.057-0.001-0.113-0.001-0.169
				c0-7.85,6.387-14.237,14.237-14.237c7.851,0,14.237,6.387,14.237,14.237c0,0.056,0,0.112-0.001,0.169h4.069
				c0-0.057,0.001-0.113,0.001-0.169c0-8.665-6.055-15.944-14.152-17.83H483.983z M565.339,0
				c-8.099,1.886-14.153,9.165-14.153,17.83c0,0.056,0.002,0.112,0.002,0.169h4.068c-0.001-0.057-0.001-0.113-0.001-0.169
				c0-7.85,6.387-14.237,14.237-14.237c7.85,0,14.236,6.387,14.236,14.237c0,0.056,0,0.112,0,0.169h4.067
				c0-0.057,0.001-0.113,0.001-0.169c0-8.665-6.054-15.944-14.153-17.83H565.339z M646.695,0
				c-8.101,1.886-14.152,9.165-14.152,17.83c0,0.056,0,0.112,0,0.169h4.069c-0.001-0.057-0.001-0.113-0.001-0.169
				c0-7.85,6.386-14.237,14.236-14.237s14.237,6.387,14.237,14.237c0,0.056,0,0.112-0.001,0.169h4.068
				c0.001-0.057,0.001-0.113,0.001-0.169C669.153,9.165,663.1,1.886,655,0H646.695z M728.051,0
				c-8.1,1.886-14.152,9.165-14.152,17.83c0,0.056,0,0.112,0.001,0.169h4.067c-0.001-0.057-0.001-0.113-0.001-0.169
				c0-7.85,6.388-14.237,14.237-14.237c7.851,0,14.237,6.387,14.237,14.237c0,0.056,0,0.112-0.001,0.169h4.067
				c0.001-0.057,0.001-0.113,0.001-0.169c0-8.665-6.052-15.944-14.151-17.83H728.051z M809.407,0
				c-8.101,1.886-14.153,9.165-14.153,17.83c0,0.056,0,0.112,0.001,0.169h4.067c0-0.057-0.001-0.113-0.001-0.169
				c0-7.85,6.388-14.237,14.236-14.237c7.852,0,14.238,6.387,14.238,14.237c0,0.056,0,0.112-0.002,0.169h4.07
				c0-0.057,0-0.113,0-0.169c0-8.665-6.055-15.944-14.152-17.83H809.407z M890.761,0c-8.098,1.886-14.15,9.165-14.15,17.83
				c0,0.056,0,0.112,0,0.169h4.066c0-0.057,0-0.113,0-0.169c0-7.85,6.389-14.237,14.238-14.237c7.848,0,14.236,6.387,14.236,14.237
				c0,0.056-0.002,0.112-0.002,0.169h4.068c0-0.057,0-0.113,0-0.169c0-8.665-6.053-15.944-14.15-17.83H890.761z M972.118,0
				c-8.1,1.886-14.154,9.165-14.154,17.83c0,0.056,0.002,0.112,0.002,0.169h4.068c-0.002-0.057-0.002-0.113-0.002-0.169
				c0-7.85,6.387-14.237,14.238-14.237c7.85,0,14.236,6.387,14.236,14.237c0,0.056,0,0.112,0,0.169h4.066
				c0.002-0.057,0.002-0.113,0.002-0.169c0-8.665-6.055-15.944-14.152-17.83H972.118z M1053.472,0
				c-8.1,1.886-14.15,9.165-14.15,17.83c0,0.056,0,0.112,0,0.169h4.068c-0.002-0.057-0.002-0.113-0.002-0.169
				c0-7.85,6.389-14.237,14.238-14.237c7.852,0,14.236,6.387,14.236,14.237c0,0.056,0,0.112,0,0.169h4.066
				c0.002-0.057,0.002-0.113,0.002-0.169c0-8.665-6.053-15.944-14.152-17.83H1053.472z M1134.829,0
				c-8.1,1.886-14.152,9.165-14.152,17.83c0,0.056,0,0.112,0,0.169h4.068c0-0.057-0.002-0.113-0.002-0.169
				c0-7.85,6.387-14.237,14.238-14.237c7.85,0,14.236,6.387,14.236,14.237c0,0.056,0,0.112,0,0.169h4.068c0-0.057,0-0.113,0-0.169
				c0-8.665-6.053-15.944-14.152-17.83H1134.829z M1216.185,0c-8.1,1.886-14.152,9.165-14.152,17.83c0,0.056,0,0.112,0,0.169h4.068
				c0-0.057-0.002-0.113-0.002-0.169c0-7.85,6.389-14.237,14.238-14.237c7.852,0,14.238,6.387,14.238,14.237
				c0,0.056-0.002,0.112-0.002,0.169h4.068c0-0.057,0.002-0.113,0.002-0.169c0-8.665-6.055-15.944-14.154-17.83H1216.185z"/>
		</defs>
		<clipPath id="SVGID_2_">
			<use xlink:href="#SVGID_1_"  overflow="visible"/>
		</clipPath>
		
			<linearGradient id="SVGID_3_" gradientUnits="userSpaceOnUse" x1="51.5376" y1="2775.5156" x2="52.5382" y2="2775.5156" gradientTransform="matrix(-1307.7828 1540.8511 528.3785 3813.74 -1397824.5 -10665297)">
			<stop  offset="0" style="stop-color:#3E2C1A"/>
			<stop  offset="0.5103" style="stop-color:#826A45"/>
			<stop  offset="0.9991" style="stop-color:#D7B781"/>
			<stop  offset="1" style="stop-color:#D7B781"/>
		</linearGradient>
		<polygon clip-path="url(#SVGID_2_)" fill="url(#SVGID_3_)" points="1240.786,15.474 173.819,1272.594 -2.144,2.526 
			1064.823,-1254.594 		"/>
	</g>
</g>
</svg>
