<?xml version="1.0" encoding="utf-8"?>
<!-- Generator: Adobe Illustrator 16.0.0, SVG Export Plug-In . SVG Version: 6.00 Build 0)  -->
<!DOCTYPE svg PUBLIC "-//W3C//DTD SVG 1.1//EN" "http://www.w3.org/Graphics/SVG/1.1/DTD/svg11.dtd">
<svg version="1.1" id="Layer_1" xmlns="http://www.w3.org/2000/svg" xmlns:xlink="http://www.w3.org/1999/xlink" x="0px" y="0px"
	 width="1891.788px" height="17.999px" viewBox="0 0 1891.788 17.999" enable-background="new 0 0 1891.788 17.999"
	 xml:space="preserve">
<g>
	<g>
		<defs>
			<path id="SVGID_1_" d="M25.112,15.2l2.801,2.799h5.75l-5.675-5.675L25.112,15.2z M106.469,15.2l2.798,2.799h5.753l-5.676-5.675
				L106.469,15.2z M187.825,15.2l2.799,2.799h5.752l-5.674-5.675L187.825,15.2z M269.18,15.2l2.8,2.799h5.751l-5.674-5.675
				L269.18,15.2z M350.536,15.2l2.801,2.799h5.75l-5.674-5.675L350.536,15.2z M431.893,15.2l2.798,2.799h5.752l-5.675-5.675
				L431.893,15.2z M513.25,15.2l2.798,2.799h5.752l-5.675-5.675L513.25,15.2z M594.604,15.2l2.799,2.799h5.752l-5.674-5.675
				L594.604,15.2z M675.959,15.2l2.8,2.799h5.752l-5.675-5.675L675.959,15.2z M757.316,15.2l2.799,2.799h5.752l-5.675-5.675
				L757.316,15.2z M838.672,15.2l2.797,2.799h5.752l-5.674-5.675L838.672,15.2z M920.026,15.2l2.799,2.799h5.754l-5.676-5.675
				L920.026,15.2z M1001.383,15.2l2.799,2.799h5.752l-5.676-5.675L1001.383,15.2z M1082.739,15.2l2.799,2.799h5.752l-5.676-5.675
				L1082.739,15.2z M1164.094,15.2l2.799,2.799h5.752l-5.674-5.675L1164.094,15.2z M2.144,11.728c3.364,0,6.103,2.738,6.103,6.102
				c0,0.056-0.002,0.113-0.004,0.169h4.068c0.001-0.056,0.002-0.113,0.002-0.169c0-5.607-4.563-10.17-10.169-10.17V11.728z
				 M73.331,17.83c0,0.056,0,0.113,0.002,0.169h4.068c-0.002-0.056-0.003-0.113-0.003-0.169c0-3.364,2.737-6.102,6.101-6.102
				c3.365,0,6.104,2.738,6.104,6.102c0,0.056-0.001,0.113-0.002,0.169h4.068c0.002-0.056,0.002-0.113,0.002-0.169
				c0-5.607-4.563-10.17-10.172-10.17C77.892,7.66,73.331,12.223,73.331,17.83 M154.686,17.83c0,0.056,0,0.113,0.001,0.169h4.069
				c-0.002-0.056-0.002-0.113-0.002-0.169c0-3.364,2.736-6.102,6.102-6.102s6.102,2.738,6.102,6.102c0,0.056,0,0.113-0.002,0.169
				h4.068c0.001-0.056,0.001-0.113,0.001-0.169c0-5.607-4.562-10.17-10.169-10.17S154.686,12.223,154.686,17.83 M236.043,17.83
				c0,0.056,0,0.113,0,0.169h4.069c-0.001-0.056-0.002-0.113-0.002-0.169c0-3.364,2.736-6.102,6.101-6.102
				c3.365,0,6.102,2.738,6.102,6.102c0,0.056,0,0.113-0.002,0.169h4.068c0.002-0.056,0.002-0.113,0.002-0.169
				c0-5.607-4.562-10.17-10.17-10.17C240.605,7.66,236.043,12.223,236.043,17.83 M317.398,17.83c0,0.056,0.001,0.113,0.001,0.169
				h4.069c-0.001-0.056-0.002-0.113-0.002-0.169c0-3.364,2.737-6.102,6.102-6.102s6.101,2.738,6.101,6.102
				c0,0.056,0,0.113-0.002,0.169h4.068c0.001-0.056,0.002-0.113,0.002-0.169c0-5.607-4.562-10.17-10.169-10.17
				C321.959,7.66,317.398,12.223,317.398,17.83 M398.754,17.83c0,0.056,0,0.113,0.002,0.169h4.068
				c-0.002-0.056-0.003-0.113-0.003-0.169c0-3.364,2.737-6.102,6.101-6.102c3.365,0,6.104,2.738,6.104,6.102
				c0,0.056-0.002,0.113-0.004,0.169h4.07c0-0.056,0.001-0.113,0.001-0.169c0-5.607-4.562-10.17-10.171-10.17
				C403.316,7.66,398.754,12.223,398.754,17.83 M480.109,17.83c0,0.056,0.001,0.113,0.002,0.169h4.069
				c-0.002-0.056-0.002-0.113-0.002-0.169c0-3.364,2.736-6.102,6.101-6.102c3.365,0,6.103,2.738,6.103,6.102
				c0,0.056-0.001,0.113-0.002,0.169h4.068c0.001-0.056,0.001-0.113,0.001-0.169c0-5.607-4.563-10.17-10.17-10.17
				C484.67,7.66,480.109,12.223,480.109,17.83 M561.467,17.83c0,0.056,0,0.113,0,0.169h4.068c-0.001-0.056-0.002-0.113-0.002-0.169
				c0-3.364,2.737-6.102,6.103-6.102s6.101,2.738,6.101,6.102c0,0.056,0,0.113-0.002,0.169h4.069
				c0.001-0.056,0.001-0.113,0.001-0.169c0-5.607-4.562-10.17-10.169-10.17S561.467,12.223,561.467,17.83 M642.822,17.83
				c0,0.056,0,0.113,0.001,0.169h4.069c-0.001-0.056-0.002-0.113-0.002-0.169c0-3.364,2.737-6.102,6.102-6.102
				s6.102,2.738,6.102,6.102c0,0.056-0.001,0.113-0.003,0.169h4.068c0.001-0.056,0.002-0.113,0.002-0.169
				c0-5.607-4.562-10.17-10.169-10.17S642.822,12.223,642.822,17.83 M724.178,17.83c0,0.056,0.001,0.113,0.002,0.169h4.069
				c-0.002-0.056-0.004-0.113-0.004-0.169c0-3.364,2.737-6.102,6.102-6.102c3.365,0,6.102,2.738,6.102,6.102
				c0,0.056-0.001,0.113-0.003,0.169h4.07c0-0.056,0.001-0.113,0.001-0.169c0-5.607-4.563-10.17-10.17-10.17
				S724.178,12.223,724.178,17.83 M805.533,17.83c0,0.056,0.001,0.113,0.002,0.169h4.069c-0.002-0.056-0.004-0.113-0.004-0.169
				c0-3.364,2.738-6.102,6.102-6.102c3.365,0,6.104,2.738,6.104,6.102c0,0.056-0.002,0.113-0.002,0.169h4.066
				c0.002-0.056,0.002-0.113,0.002-0.169c0-5.607-4.563-10.17-10.17-10.17S805.533,12.223,805.533,17.83 M886.889,17.83
				c0,0.056,0,0.113,0.002,0.169h4.066c0-0.056-0.002-0.113-0.002-0.169c0-3.364,2.738-6.102,6.104-6.102s6.1,2.738,6.1,6.102
				c0,0.056,0,0.113-0.002,0.169h4.07c0-0.056,0-0.113,0-0.169c0-5.607-4.563-10.17-10.168-10.17
				C891.45,7.66,886.889,12.223,886.889,17.83 M968.245,17.83c0,0.056,0,0.113,0.002,0.169h4.066c0-0.056-0.002-0.113-0.002-0.169
				c0-3.364,2.738-6.102,6.104-6.102c3.363,0,6.102,2.738,6.102,6.102c0,0.056-0.002,0.113-0.004,0.169h4.07
				c0-0.056,0.002-0.113,0.002-0.169c0-5.607-4.563-10.17-10.17-10.17S968.245,12.223,968.245,17.83 M1049.6,17.83
				c0,0.056,0.002,0.113,0.002,0.169h4.068c-0.002-0.056-0.002-0.113-0.002-0.169c0-3.364,2.736-6.102,6.102-6.102
				s6.102,2.738,6.102,6.102c0,0.056,0,0.113-0.004,0.169h4.07c0-0.056,0.002-0.113,0.002-0.169c0-5.607-4.563-10.17-10.17-10.17
				S1049.6,12.223,1049.6,17.83 M1130.956,17.83c0,0.056,0.002,0.113,0.002,0.169h4.068c-0.002-0.056-0.002-0.113-0.002-0.169
				c0-3.364,2.736-6.102,6.102-6.102c3.363,0,6.102,2.738,6.102,6.102c0,0.056-0.002,0.113-0.002,0.169h4.068
				c0.002-0.056,0.002-0.113,0.002-0.169c0-5.607-4.563-10.17-10.17-10.17S1130.956,12.223,1130.956,17.83 M25.112,2.997
				l15.004,15.002h5.752L27.988,0.12L25.112,2.997z M37.316,2.997l15.002,15.002h5.753L40.193,0.12L37.316,2.997z M49.52,2.997
				l8.135,8.136l2.877-2.877L52.395,0.12L49.52,2.997z M106.469,2.997l15.001,15.002h5.752L109.344,0.12L106.469,2.997z
				 M118.672,2.997l15.002,15.002h5.753L121.547,0.12L118.672,2.997z M130.875,2.997l8.136,8.136l2.876-2.877l-8.135-8.136
				L130.875,2.997z M187.825,2.997l15.002,15.002h5.752L190.702,0.12L187.825,2.997z M200.027,2.997l15.005,15.002h5.75
				L202.904,0.12L200.027,2.997z M212.231,2.997l8.137,8.136l2.875-2.877l-8.135-8.136L212.231,2.997z M269.18,2.997l15.001,15.002
				h5.754L272.057,0.12L269.18,2.997z M281.385,2.997l15.001,15.002h5.752L284.259,0.12L281.385,2.997z M293.586,2.997l8.137,8.136
				l2.876-2.877l-8.136-8.136L293.586,2.997z M350.536,2.997l15.002,15.002h5.752L353.413,0.12L350.536,2.997z M362.741,2.997
				l15.002,15.002h5.752L365.618,0.12L362.741,2.997z M374.942,2.997l8.137,8.136l2.877-2.877l-8.137-8.136L374.942,2.997z
				 M431.893,2.997l15.001,15.002h5.752L434.768,0.12L431.893,2.997z M444.095,2.997l15.002,15.002h5.754L446.972,0.12
				L444.095,2.997z M456.3,2.997l8.134,8.136l2.877-2.877l-8.137-8.136L456.3,2.997z M513.25,2.997l15.001,15.002h5.752
				L516.125,0.12L513.25,2.997z M525.451,2.997l15.002,15.002h5.754L528.328,0.12L525.451,2.997z M537.655,2.997l8.136,8.136
				l2.875-2.877l-8.134-8.136L537.655,2.997z M594.604,2.997l15.001,15.002h5.753L597.481,0.12L594.604,2.997z M606.808,2.997
				l15.002,15.002h5.752L609.683,0.12L606.808,2.997z M619.011,2.997l8.135,8.136l2.877-2.877l-8.136-8.136L619.011,2.997z
				 M675.959,2.997l15.002,15.002h5.753L678.836,0.12L675.959,2.997z M688.164,2.997l15.002,15.002h5.752L691.039,0.12
				L688.164,2.997z M700.366,2.997l8.138,8.136l2.876-2.877l-8.137-8.136L700.366,2.997z M757.316,2.997l15.001,15.002h5.753
				L760.192,0.12L757.316,2.997z M769.519,2.997l15.002,15.002h5.753L772.396,0.12L769.519,2.997z M781.724,2.997l8.134,8.136
				l2.877-2.877l-8.137-8.136L781.724,2.997z M838.672,2.997l15,15.002h5.752L841.547,0.12L838.672,2.997z M850.874,2.997
				l15.004,15.002h5.752L853.75,0.12L850.874,2.997z M863.079,2.997l8.135,8.136l2.877-2.877l-8.137-8.136L863.079,2.997z
				 M920.026,2.997l15.002,15.002h5.752L922.903,0.12L920.026,2.997z M932.229,2.997l15.002,15.002h5.754L935.106,0.12
				L932.229,2.997z M944.434,2.997l8.135,8.136l2.875-2.877l-8.135-8.136L944.434,2.997z M1001.383,2.997l15,15.002h5.752
				L1004.258,0.12L1001.383,2.997z M1013.586,2.997l15.002,15.002h5.752L1016.461,0.12L1013.586,2.997z M1025.79,2.997l8.137,8.136
				l2.875-2.877l-8.135-8.136L1025.79,2.997z M1082.739,2.997l15,15.002h5.754L1085.614,0.12L1082.739,2.997z M1094.942,2.997
				l15.002,15.002h5.752L1097.819,0.12L1094.942,2.997z M1107.145,2.997l8.135,8.136l2.877-2.877l-8.137-8.136L1107.145,2.997z
				 M1164.094,2.997l15.002,15.002h5.752L1166.971,0.12L1164.094,2.997z M1176.297,2.997l15.002,15.002h5.752L1179.174,0.12
				L1176.297,2.997z M1188.502,2.997l8.135,8.136l2.875-2.877l-8.135-8.136L1188.502,2.997z M2.144,0v3.593
				c7.851,0,14.237,6.387,14.237,14.237c0,0.056,0,0.112-0.002,0.169h4.068c0.002-0.057,0.002-0.113,0.002-0.169
				C20.45,9.165,14.396,1.886,6.297,0H2.144z M79.347,0c-8.099,1.886-14.152,9.165-14.152,17.83c0,0.056,0,0.112,0.001,0.169h4.067
				c-0.001-0.057-0.001-0.113-0.001-0.169c0-7.85,6.387-14.237,14.236-14.237c7.852,0,14.238,6.387,14.238,14.237
				c0,0.056,0,0.112-0.001,0.169h4.068c0-0.057,0-0.113,0-0.169c0-8.665-6.052-15.944-14.152-17.83H79.347z M160.704,0
				c-8.1,1.886-14.152,9.165-14.152,17.83c0,0.056,0,0.112,0.001,0.169h4.067c0-0.057,0-0.113,0-0.169
				c0-7.85,6.387-14.237,14.236-14.237s14.237,6.387,14.237,14.237c0,0.056,0,0.112-0.001,0.169h4.068c0-0.057,0-0.113,0-0.169
				c0-8.665-6.054-15.944-14.151-17.83H160.704z M242.059,0c-8.1,1.886-14.152,9.165-14.152,17.83c0,0.056,0,0.112,0,0.169h4.069
				c-0.001-0.057-0.001-0.113-0.001-0.169c0-7.85,6.387-14.237,14.236-14.237c7.851,0,14.238,6.387,14.238,14.237
				c0,0.056-0.002,0.112-0.002,0.169h4.068c0.001-0.057,0.001-0.113,0.001-0.169c0-8.665-6.054-15.944-14.153-17.83H242.059z
				 M323.415,0c-8.1,1.886-14.151,9.165-14.151,17.83c0,0.056,0,0.112,0,0.169h4.069c-0.002-0.057-0.002-0.113-0.002-0.169
				c0-7.85,6.387-14.237,14.237-14.237s14.237,6.387,14.237,14.237c0,0.056,0,0.112-0.001,0.169h4.067
				c0.002-0.057,0.002-0.113,0.002-0.169c0-8.665-6.054-15.944-14.152-17.83H323.415z M404.771,0
				c-8.099,1.886-14.153,9.165-14.153,17.83c0,0.056,0,0.112,0.002,0.169h4.067c-0.001-0.057-0.001-0.113-0.001-0.169
				c0-7.85,6.387-14.237,14.236-14.237c7.852,0,14.238,6.387,14.238,14.237c0,0.056,0,0.112,0,0.169h4.066
				c0.001-0.057,0.001-0.113,0.001-0.169c0-8.665-6.052-15.944-14.151-17.83H404.771z M486.127,0
				c-8.1,1.886-14.152,9.165-14.152,17.83c0,0.056,0,0.112,0.001,0.169h4.067c0-0.057-0.002-0.113-0.002-0.169
				c0-7.85,6.388-14.237,14.237-14.237c7.851,0,14.237,6.387,14.237,14.237c0,0.056,0,0.112-0.001,0.169h4.069
				c0-0.057,0.001-0.113,0.001-0.169c0-8.665-6.055-15.944-14.152-17.83H486.127z M567.483,0
				c-8.099,1.886-14.153,9.165-14.153,17.83c0,0.056,0.002,0.112,0.002,0.169h4.068c-0.001-0.057-0.001-0.113-0.001-0.169
				c0-7.85,6.387-14.237,14.237-14.237c7.85,0,14.236,6.387,14.236,14.237c0,0.056,0,0.112,0,0.169h4.067
				c0-0.057,0.001-0.113,0.001-0.169c0-8.665-6.054-15.944-14.153-17.83H567.483z M648.839,0
				c-8.101,1.886-14.152,9.165-14.152,17.83c0,0.056,0,0.112,0,0.169h4.069c-0.001-0.057-0.001-0.113-0.001-0.169
				c0-7.85,6.386-14.237,14.236-14.237s14.237,6.387,14.237,14.237c0,0.056,0,0.112-0.001,0.169h4.068
				c0.001-0.057,0.001-0.113,0.001-0.169c0-8.665-6.054-15.944-14.153-17.83H648.839z M730.195,0
				c-8.1,1.886-14.152,9.165-14.152,17.83c0,0.056,0,0.112,0.001,0.169h4.067c-0.001-0.057-0.001-0.113-0.001-0.169
				c0-7.85,6.388-14.237,14.237-14.237c7.851,0,14.237,6.387,14.237,14.237c0,0.056,0,0.112-0.001,0.169h4.067
				c0.001-0.057,0.001-0.113,0.001-0.169c0-8.665-6.052-15.944-14.151-17.83H730.195z M811.551,0
				c-8.101,1.886-14.153,9.165-14.153,17.83c0,0.056,0,0.112,0.001,0.169h4.067c0-0.057-0.001-0.113-0.001-0.169
				c0-7.85,6.388-14.237,14.236-14.237c7.852,0,14.238,6.387,14.238,14.237c0,0.056,0,0.112-0.002,0.169h4.07
				c0-0.057,0-0.113,0-0.169c0-8.665-6.055-15.944-14.152-17.83H811.551z M892.905,0c-8.098,1.886-14.15,9.165-14.15,17.83
				c0,0.056,0,0.112,0,0.169h4.066c0-0.057,0-0.113,0-0.169c0-7.85,6.389-14.237,14.238-14.237c7.848,0,14.236,6.387,14.236,14.237
				c0,0.056-0.002,0.112-0.002,0.169h4.068c0-0.057,0-0.113,0-0.169c0-8.665-6.053-15.944-14.15-17.83H892.905z M974.262,0
				c-8.1,1.886-14.154,9.165-14.154,17.83c0,0.056,0.002,0.112,0.002,0.169h4.068c-0.002-0.057-0.002-0.113-0.002-0.169
				c0-7.85,6.387-14.237,14.238-14.237c7.85,0,14.236,6.387,14.236,14.237c0,0.056,0,0.112,0,0.169h4.066
				c0.002-0.057,0.002-0.113,0.002-0.169c0-8.665-6.055-15.944-14.152-17.83H974.262z M1055.616,0
				c-8.1,1.886-14.15,9.165-14.15,17.83c0,0.056,0,0.112,0,0.169h4.068c-0.002-0.057-0.002-0.113-0.002-0.169
				c0-7.85,6.389-14.237,14.238-14.237c7.852,0,14.236,6.387,14.236,14.237c0,0.056,0,0.112,0,0.169h4.066
				c0.002-0.057,0.002-0.113,0.002-0.169c0-8.665-6.053-15.944-14.152-17.83H1055.616z M1136.973,0
				c-8.1,1.886-14.152,9.165-14.152,17.83c0,0.056,0,0.112,0,0.169h4.068c0-0.057-0.002-0.113-0.002-0.169
				c0-7.85,6.387-14.237,14.238-14.237c7.85,0,14.236,6.387,14.236,14.237c0,0.056,0,0.112,0,0.169h4.068c0-0.057,0-0.113,0-0.169
				c0-8.665-6.053-15.944-14.152-17.83H1136.973z M1245.604,15.2l2.799,2.799h5.752l-5.674-5.675L1245.604,15.2z M1326.959,15.2
				l2.8,2.799h5.752l-5.675-5.675L1326.959,15.2z M1408.316,15.2l2.799,2.799h5.752l-5.675-5.675L1408.316,15.2z M1489.672,15.2
				l2.797,2.799h5.752l-5.674-5.675L1489.672,15.2z M1571.026,15.2l2.799,2.799h5.754l-5.676-5.675L1571.026,15.2z M1652.383,15.2
				l2.799,2.799h5.752l-5.676-5.675L1652.383,15.2z M1733.739,15.2l2.799,2.799h5.752l-5.676-5.675L1733.739,15.2z M1815.094,15.2
				l2.799,2.799h5.752l-5.674-5.675L1815.094,15.2z M1212.467,17.83c0,0.056,0,0.113,0,0.169h4.068
				c-0.001-0.056-0.002-0.113-0.002-0.169c0-3.364,2.737-6.102,6.103-6.102s6.101,2.738,6.101,6.102c0,0.056,0,0.113-0.002,0.169
				h4.069c0.001-0.056,0.001-0.113,0.001-0.169c0-5.607-4.562-10.17-10.169-10.17S1212.467,12.223,1212.467,17.83 M1293.822,17.83
				c0,0.056,0,0.113,0.001,0.169h4.069c-0.001-0.056-0.002-0.113-0.002-0.169c0-3.364,2.737-6.102,6.102-6.102
				s6.102,2.738,6.102,6.102c0,0.056-0.001,0.113-0.003,0.169h4.068c0.001-0.056,0.002-0.113,0.002-0.169
				c0-5.607-4.562-10.17-10.169-10.17S1293.822,12.223,1293.822,17.83 M1375.178,17.83c0,0.056,0.001,0.113,0.002,0.169h4.069
				c-0.002-0.056-0.004-0.113-0.004-0.169c0-3.364,2.737-6.102,6.102-6.102c3.365,0,6.102,2.738,6.102,6.102
				c0,0.056-0.001,0.113-0.003,0.169h4.07c0-0.056,0.001-0.113,0.001-0.169c0-5.607-4.563-10.17-10.17-10.17
				S1375.178,12.223,1375.178,17.83 M1456.533,17.83c0,0.056,0.001,0.113,0.002,0.169h4.069c-0.002-0.056-0.004-0.113-0.004-0.169
				c0-3.364,2.738-6.102,6.102-6.102c3.365,0,6.104,2.738,6.104,6.102c0,0.056-0.002,0.113-0.002,0.169h4.066
				c0.002-0.056,0.002-0.113,0.002-0.169c0-5.607-4.563-10.17-10.17-10.17S1456.533,12.223,1456.533,17.83 M1537.889,17.83
				c0,0.056,0,0.113,0.002,0.169h4.066c0-0.056-0.002-0.113-0.002-0.169c0-3.364,2.738-6.102,6.104-6.102s6.1,2.738,6.1,6.102
				c0,0.056,0,0.113-0.002,0.169h4.07c0-0.056,0-0.113,0-0.169c0-5.607-4.563-10.17-10.168-10.17
				C1542.45,7.66,1537.889,12.223,1537.889,17.83 M1619.245,17.83c0,0.056,0,0.113,0.002,0.169h4.066
				c0-0.056-0.002-0.113-0.002-0.169c0-3.364,2.738-6.102,6.104-6.102c3.363,0,6.102,2.738,6.102,6.102
				c0,0.056-0.002,0.113-0.004,0.169h4.07c0-0.056,0.002-0.113,0.002-0.169c0-5.607-4.563-10.17-10.17-10.17
				S1619.245,12.223,1619.245,17.83 M1700.6,17.83c0,0.056,0.002,0.113,0.002,0.169h4.068c-0.002-0.056-0.002-0.113-0.002-0.169
				c0-3.364,2.736-6.102,6.102-6.102s6.102,2.738,6.102,6.102c0,0.056,0,0.113-0.004,0.169h4.07c0-0.056,0.002-0.113,0.002-0.169
				c0-5.607-4.563-10.17-10.17-10.17S1700.6,12.223,1700.6,17.83 M1781.956,17.83c0,0.056,0.002,0.113,0.002,0.169h4.068
				c-0.002-0.056-0.002-0.113-0.002-0.169c0-3.364,2.736-6.102,6.102-6.102c3.363,0,6.102,2.738,6.102,6.102
				c0,0.056-0.002,0.113-0.002,0.169h4.068c0.002-0.056,0.002-0.113,0.002-0.169c0-5.607-4.563-10.17-10.17-10.17
				S1781.956,12.223,1781.956,17.83 M1863.313,17.83c0,0.056,0,0.113,0,0.169h4.068c0-0.056-0.002-0.113-0.002-0.169
				c0-3.364,2.736-6.102,6.102-6.102s6.104,2.738,6.104,6.102c0,0.056-0.002,0.113-0.002,0.169h4.066
				c0.002-0.056,0.002-0.113,0.002-0.169c0-5.607-4.563-10.17-10.17-10.17S1863.313,12.223,1863.313,17.83 M1245.604,2.997
				l15.001,15.002h5.753L1248.481,0.12L1245.604,2.997z M1257.808,2.997l15.002,15.002h5.752L1260.683,0.12L1257.808,2.997z
				 M1270.011,2.997l8.135,8.136l2.877-2.877l-8.136-8.136L1270.011,2.997z M1326.959,2.997l15.002,15.002h5.753L1329.836,0.12
				L1326.959,2.997z M1339.164,2.997l15.002,15.002h5.752L1342.039,0.12L1339.164,2.997z M1351.366,2.997l8.138,8.136l2.876-2.877
				l-8.137-8.136L1351.366,2.997z M1408.316,2.997l15.001,15.002h5.753L1411.192,0.12L1408.316,2.997z M1420.519,2.997
				l15.002,15.002h5.753L1423.396,0.12L1420.519,2.997z M1432.724,2.997l8.134,8.136l2.877-2.877l-8.137-8.136L1432.724,2.997z
				 M1489.672,2.997l15,15.002h5.752L1492.547,0.12L1489.672,2.997z M1501.874,2.997l15.004,15.002h5.752L1504.75,0.12
				L1501.874,2.997z M1514.079,2.997l8.135,8.136l2.877-2.877l-8.137-8.136L1514.079,2.997z M1571.026,2.997l15.002,15.002h5.752
				L1573.903,0.12L1571.026,2.997z M1583.229,2.997l15.002,15.002h5.754L1586.106,0.12L1583.229,2.997z M1595.434,2.997l8.135,8.136
				l2.875-2.877l-8.135-8.136L1595.434,2.997z M1652.383,2.997l15,15.002h5.752L1655.258,0.12L1652.383,2.997z M1664.586,2.997
				l15.002,15.002h5.752L1667.461,0.12L1664.586,2.997z M1676.79,2.997l8.137,8.136l2.875-2.877l-8.135-8.136L1676.79,2.997z
				 M1733.739,2.997l15,15.002h5.754L1736.614,0.12L1733.739,2.997z M1745.942,2.997l15.002,15.002h5.752L1748.819,0.12
				L1745.942,2.997z M1758.145,2.997l8.135,8.136l2.877-2.877l-8.137-8.136L1758.145,2.997z M1815.094,2.997l15.002,15.002h5.752
				L1817.971,0.12L1815.094,2.997z M1827.297,2.997l15.002,15.002h5.752L1830.174,0.12L1827.297,2.997z M1839.502,2.997l8.135,8.136
				l2.875-2.877l-8.135-8.136L1839.502,2.997z M1218.483,0c-8.099,1.886-14.153,9.165-14.153,17.83c0,0.056,0.002,0.112,0.002,0.169
				h4.068c-0.001-0.057-0.001-0.113-0.001-0.169c0-7.85,6.387-14.237,14.237-14.237c7.85,0,14.236,6.387,14.236,14.237
				c0,0.056,0,0.112,0,0.169h4.067c0-0.057,0.001-0.113,0.001-0.169c0-8.665-6.054-15.944-14.153-17.83H1218.483z M1299.839,0
				c-8.101,1.886-14.152,9.165-14.152,17.83c0,0.056,0,0.112,0,0.169h4.069c-0.001-0.057-0.001-0.113-0.001-0.169
				c0-7.85,6.386-14.237,14.236-14.237s14.237,6.387,14.237,14.237c0,0.056,0,0.112-0.001,0.169h4.068
				c0.001-0.057,0.001-0.113,0.001-0.169c0-8.665-6.054-15.944-14.153-17.83H1299.839z M1381.195,0
				c-8.1,1.886-14.152,9.165-14.152,17.83c0,0.056,0,0.112,0.001,0.169h4.067c-0.001-0.057-0.001-0.113-0.001-0.169
				c0-7.85,6.388-14.237,14.237-14.237c7.851,0,14.237,6.387,14.237,14.237c0,0.056,0,0.112-0.001,0.169h4.067
				c0.001-0.057,0.001-0.113,0.001-0.169c0-8.665-6.052-15.944-14.151-17.83H1381.195z M1462.551,0
				c-8.101,1.886-14.153,9.165-14.153,17.83c0,0.056,0,0.112,0.001,0.169h4.067c0-0.057-0.001-0.113-0.001-0.169
				c0-7.85,6.388-14.237,14.236-14.237c7.852,0,14.238,6.387,14.238,14.237c0,0.056,0,0.112-0.002,0.169h4.07
				c0-0.057,0-0.113,0-0.169c0-8.665-6.055-15.944-14.152-17.83H1462.551z M1543.905,0c-8.098,1.886-14.15,9.165-14.15,17.83
				c0,0.056,0,0.112,0,0.169h4.066c0-0.057,0-0.113,0-0.169c0-7.85,6.389-14.237,14.238-14.237c7.848,0,14.236,6.387,14.236,14.237
				c0,0.056-0.002,0.112-0.002,0.169h4.068c0-0.057,0-0.113,0-0.169c0-8.665-6.053-15.944-14.15-17.83H1543.905z M1625.262,0
				c-8.1,1.886-14.154,9.165-14.154,17.83c0,0.056,0.002,0.112,0.002,0.169h4.068c-0.002-0.057-0.002-0.113-0.002-0.169
				c0-7.85,6.387-14.237,14.238-14.237c7.85,0,14.236,6.387,14.236,14.237c0,0.056,0,0.112,0,0.169h4.066
				c0.002-0.057,0.002-0.113,0.002-0.169c0-8.665-6.055-15.944-14.152-17.83H1625.262z M1706.616,0
				c-8.1,1.886-14.15,9.165-14.15,17.83c0,0.056,0,0.112,0,0.169h4.068c-0.002-0.057-0.002-0.113-0.002-0.169
				c0-7.85,6.389-14.237,14.238-14.237c7.852,0,14.236,6.387,14.236,14.237c0,0.056,0,0.112,0,0.169h4.066
				c0.002-0.057,0.002-0.113,0.002-0.169c0-8.665-6.053-15.944-14.152-17.83H1706.616z M1787.973,0
				c-8.1,1.886-14.152,9.165-14.152,17.83c0,0.056,0,0.112,0,0.169h4.068c0-0.057-0.002-0.113-0.002-0.169
				c0-7.85,6.387-14.237,14.238-14.237c7.85,0,14.236,6.387,14.236,14.237c0,0.056,0,0.112,0,0.169h4.068c0-0.057,0-0.113,0-0.169
				c0-8.665-6.053-15.944-14.152-17.83H1787.973z M1869.329,0c-8.1,1.886-14.152,9.165-14.152,17.83c0,0.056,0,0.112,0,0.169h4.068
				c0-0.057-0.002-0.113-0.002-0.169c0-7.85,6.389-14.237,14.238-14.237c7.852,0,14.238,6.387,14.238,14.237
				c0,0.056-0.002,0.112-0.002,0.169h4.068c0-0.057,0.002-0.113,0.002-0.169c0-8.665-6.055-15.944-14.154-17.83H1869.329z"/>
		</defs>
		<clipPath id="SVGID_2_">
			<use xlink:href="#SVGID_1_"  overflow="visible"/>
		</clipPath>
		
			<linearGradient id="SVGID_3_" gradientUnits="userSpaceOnUse" x1="-392.7417" y1="2443.3232" x2="-391.0507" y2="2443.3232" gradientTransform="matrix(-1307.7828 1540.8511 528.3785 3813.74 -1802422.125 -8714383)">
			<stop  offset="0.3817" style="stop-color:#3E2C1A"/>
			<stop  offset="0.7038" style="stop-color:#826A45"/>
			<stop  offset="0.9991" style="stop-color:#D7B781"/>
			<stop  offset="1" style="stop-color:#D7B781"/>
		</linearGradient>
		<polygon clip-path="url(#SVGID_2_)" fill="url(#SVGID_3_)" points="2099.438,15.474 175.963,1272.594 0,2.526 1066.967,-1254.594 
					"/>
	</g>
</g>
</svg>
