<svg xmlns="http://www.w3.org/2000/svg" xmlns:xlink="http://www.w3.org/1999/xlink" version="1.1" x="0px" y="0px" width="80px" viewBox="0 0 80 80" enable-background="new 0 0 80 80" xml:space="preserve" fill="#fff">
<path d="M40,0C18,0,0,18,0,40c0,22,18,40,40,40s40-18,40-40C80,18,62,0,40,0 M40,70   c-16.5,0-30-13.5-30-30c0-16.5,13.5-30,30-30s30,13.5,30,30C70,56.5,56.5,70,40,70"/><path d="M30,51c0,2.201,1.551,3.088,3.448,1.973l18.604-10.943   c1.897-1.115,1.897-2.942,0-4.057L33.448,27.028C31.551,25.913,30,26.8,30,29V51z"/>
</svg>