<?xml version="1.0" encoding="utf-8"?>
<!-- Generator: Adobe Illustrator 23.0.2, SVG Export Plug-In . SVG Version: 6.00 Build 0)  -->
<svg version="1.1" id="Layer_1" xmlns="http://www.w3.org/2000/svg" xmlns:xlink="http://www.w3.org/1999/xlink" x="0px" y="0px"
	 viewBox="0 0 30 30" style="enable-background:new 0 0 30 30;" xml:space="preserve">
<style type="text/css">
	.st0{clip-path:url(#SVGID_2_);fill:url(#SVGID_3_);}
</style>
<g>
	<defs>
		<path id="SVGID_1_" d="M12.7,20.92c0,1.31-1.07,2.38-2.38,2.38H9.81v3.66c0,0.94-0.65,1.74-1.52,1.96v-0.7
			c0-0.56-0.45-1.01-1.01-1.01V30h0.51c1.68,0,3.04-1.37,3.04-3.04v-2.69c1.63-0.25,2.89-1.66,2.89-3.36V19.9
			c0-0.56-0.45-1.01-1.01-1.01V20.92z M20.72,14.51c-0.56,0-1.01,0.45-1.01,1.01h1.62c0.56,0,1.01,0.45,1.01,1.01v1.77
			c0,0.37-0.2,0.7-0.51,0.88v-0.62c0-0.56-0.46-1.01-1.01-1.01v2.78h0.51c1.12,0,2.03-0.91,2.03-2.03v-1.77
			c0-1.12-0.91-2.03-2.03-2.03H20.72z M18.35,16.52l-3.72,3.72c0.4,0.4,1.04,0.4,1.43,0c0.01-0.02,0.95-0.95,0.95-0.95v0.61
			c0,1.31-1.07,2.38-2.38,2.38h-0.51v3.66c0,0.94-0.65,1.74-1.52,1.96v-0.7c0-0.56-0.45-1.01-1.01-1.01v2.79h0.51
			c1.68,0,3.04-1.36,3.04-3.04v-2.69c1.63-0.24,2.89-1.66,2.89-3.36v-1.63l1.74-1.74l-0.36-0.36c-1.23-1.23-1.5-3.05-0.82-4.55
			C17.32,13,17.24,15.07,18.35,16.52 M15.04,10.19L9.1,16.13c-1.86,0.11-3.33,1.66-3.33,3.54c0,1.62-1.01,2.99-2.43,3.54
			c1.91-0.06,3.44-1.62,3.44-3.54c0-1.01,0.6-1.89,1.46-2.29c-0.29,0.76-0.28,1.61,0.06,2.38c-0.04,2.81-1.9,5.17-4.45,5.97
			c3.07-0.31,5.47-2.9,5.47-6.05H9.31l0.01,0v-0.14l-0.05-0.1c-0.4-0.81-0.23-1.79,0.41-2.44l6.08-6.08l0.72-0.72
			c-0.2-0.2-0.46-0.3-0.72-0.3C15.5,9.9,15.24,10,15.04,10.19 M20.05,0c-2.51,0-4.56,2.05-4.56,4.56v3.36
			c0,0.66-0.42,1.22-1.01,1.43c0.16,0.06,0.33,0.09,0.51,0.09c0.81,0,1.48-0.64,1.52-1.44c0-0.03,0-0.05,0-0.08V4.56
			c0-1.78,1.32-3.26,3.04-3.51v1.19l3.57,3.57c0.39,0.4,0.39,1.04,0,1.43c-0.4,0.4-1.04,0.4-1.43,0c-0.1-0.1-0.23-0.15-0.36-0.15
			c-0.84,0-1.52-0.68-1.52-1.52c-0.13,0.24-0.2,0.52-0.2,0.81c0,0.78,0.51,1.43,1.22,1.65v4.96h3.81c0.56,0,1.01,0.46,1.01,1.01
			v1.77c0,0.38-0.2,0.7-0.51,0.88v-0.62c0-0.56-0.45-1.01-1.01-1.01v2.79h0.51c1.12,0,2.03-0.91,2.03-2.03v-1.77
			c0-1.12-0.91-2.03-2.03-2.03h-2.8V8.47c0.69,0.2,1.46,0.03,2-0.51c0.79-0.79,0.79-2.08,0-2.87l-3.27-3.27V0H20.05z"/>
	</defs>
	<clipPath id="SVGID_2_">
		<use xlink:href="#SVGID_1_"  style="overflow:visible;"/>
	</clipPath>
	
		<linearGradient id="SVGID_3_" gradientUnits="userSpaceOnUse" x1="517.0415" y1="3600.8594" x2="518.7464" y2="3600.8594" gradientTransform="matrix(96.3374 -113.5063 -38.9228 -280.938 90330.9531 1070417.375)">
		<stop  offset="0" style="stop-color:#3E2B19"/>
		<stop  offset="0.5103" style="stop-color:#826A44"/>
		<stop  offset="0.9991" style="stop-color:#D7B882"/>
		<stop  offset="1" style="stop-color:#D7B882"/>
	</linearGradient>
	<polygon class="st0" points="-32.04,-16.34 132.21,-209.86 167.71,46.34 3.46,239.86 	"/>
</g>
</svg>
