<svg xmlns="http://www.w3.org/2000/svg" width="16" height="14" viewBox="0 0 16 14">
    <g fill="none" fill-rule="evenodd">
        <path d="M-4-5h24v24H-4z"/>
        <path fill="#7E7E7E" fill-rule="nonzero" d="M7.876 4.421l2.306 2.328v-.117c0-1.221-.977-2.21-2.182-2.21h-.124zm-3.127.59l1.127 1.142c-.036.154-.058.31-.058.479 0 1.22.977 2.21 2.182 2.21.16 0 .32-.022.473-.059L9.6 9.925a3.567 3.567 0 0 1-1.6.39c-2.008 0-3.636-1.649-3.636-3.683 0-.583.145-1.128.385-1.621zM.727.936l1.658 1.68.328.331A8.71 8.71 0 0 0 0 6.632c1.258 3.234 4.364 5.526 8 5.526a8.467 8.467 0 0 0 3.185-.62l.313.31L13.622 14l.923-.936L1.651 0 .727.936zM8 2.947c2.008 0 3.636 1.65 3.636 3.685 0 .471-.094.928-.261 1.34l2.13 2.16A8.723 8.723 0 0 0 16 6.632c-1.258-3.235-4.364-5.527-8-5.527a8.515 8.515 0 0 0-2.91.516l1.58 1.584A3.63 3.63 0 0 1 8 2.947z"/>
    </g>
</svg>
