<?xml version="1.0" encoding="utf-8"?>
<!-- Generator: Adobe Illustrator 16.0.0, SVG Export Plug-In . SVG Version: 6.00 Build 0)  -->
<!DOCTYPE svg PUBLIC "-//W3C//DTD SVG 1.1//EN" "http://www.w3.org/Graphics/SVG/1.1/DTD/svg11.dtd">
<svg version="1.1" id="Layer_1" xmlns="http://www.w3.org/2000/svg" xmlns:xlink="http://www.w3.org/1999/xlink" x="0px" y="0px"
	 width="388.493px" height="500px" viewBox="-176 -235.11 388.493 500" enable-background="new -176 -235.11 388.493 500"
	 xml:space="preserve">
<g>
	<g>
		<defs>
			<rect id="SVGID_1_" x="-176" y="-235.11" width="388.493" height="500"/>
		</defs>
		<clipPath id="SVGID_2_">
			<use xlink:href="#SVGID_1_"  overflow="visible"/>
		</clipPath>
		<g clip-path="url(#SVGID_2_)">
			<defs>
				<rect id="SVGID_3_" x="-176" y="-235.11" width="388.493" height="500"/>
			</defs>
			<clipPath id="SVGID_4_">
				<use xlink:href="#SVGID_3_"  overflow="visible"/>
			</clipPath>
			<g opacity="0.2" clip-path="url(#SVGID_4_)">
				<g>
					<defs>
						<rect id="SVGID_5_" x="-176" y="-235.11" width="388.493" height="500"/>
					</defs>
					<clipPath id="SVGID_6_">
						<use xlink:href="#SVGID_5_"  overflow="visible"/>
					</clipPath>
					<path clip-path="url(#SVGID_6_)" fill="#3B6572" d="M-20.089,113.487c0,21.873-17.803,39.676-39.689,39.676h-8.455v61.039
						c0,15.728-10.778,28.952-25.337,32.719v-11.603c0-9.321-7.561-16.882-16.896-16.882v46.453h8.455
						c27.935,0,50.674-22.752,50.674-50.688V169.44c27.206-4.097,48.144-27.633,48.144-55.953V96.605
						c0-9.334-7.561-16.91-16.896-16.91V113.487z"/>
					<path clip-path="url(#SVGID_6_)" fill="#3B6572" d="M113.633,6.779c-9.32,0-16.881,7.561-16.881,16.896h27.068
						c9.321,0,16.896,7.575,16.896,16.882v29.571c0,6.214-3.409,11.685-8.454,14.613V74.335c-0.056-9.28-7.59-16.8-16.896-16.8
						v46.37h8.455c18.614,0,33.792-15.163,33.792-33.777V40.557c0-18.629-15.178-33.777-33.792-33.777H113.633z"/>
					<path clip-path="url(#SVGID_6_)" fill="#3B6572" d="M74.028,40.158l-61.989,62.001c6.585,6.586,17.295,6.586,23.88,0
						c0.247-0.261,15.782-15.796,15.782-15.796v10.242c0,21.872-17.803,39.675-39.69,39.675H3.557v61.04
						c0,15.699-10.778,28.952-25.337,32.705v-11.589c0-9.335-7.561-16.896-16.896-16.896v46.453h8.455
						c27.935,0,50.674-22.738,50.674-50.674v-44.775c27.206-4.083,48.129-27.619,48.129-55.939V69.481l28.939-28.925l-5.98-5.966
						C71.057,14.093,66.48-16.263,77.821-41.188C56.842-18.462,55.591,16.017,74.028,40.158"/>
					<path clip-path="url(#SVGID_6_)" fill="#3B6572" d="M18.982-65.218l-98.996,99.01c-30.919,1.87-55.499,27.619-55.499,58.991
						c0,26.918-16.8,49.904-40.487,59.074c31.798-0.921,57.382-27.055,57.382-59.074c0-16.909,9.981-31.496,24.361-38.246
						c-4.812,12.607-4.66,26.85,0.949,39.635c-0.605,46.783-31.62,86.211-74.182,99.45c51.099-5.169,91.091-48.405,91.091-100.839
						h-0.192l0.192-0.013v-2.338l-0.852-1.745c-6.613-13.583-3.877-29.915,6.832-40.611L30.929-53.271l11.946-11.947
						c-3.299-3.286-7.616-4.949-11.933-4.949C26.612-70.167,22.295-68.504,18.982-65.218"/>
					<path clip-path="url(#SVGID_6_)" fill="#3B6572" d="M102.471-235.11c-41.917,0-76.024,34.107-76.024,76.024v56.063
						c0,11.025-7.053,20.401-16.896,23.894c2.653,0.921,5.485,1.442,8.455,1.442c13.555,0,24.622-10.64,25.309-24.03
						c0.014-0.439,0.014-0.866,0.014-1.306v-56.063c0-29.736,22.079-54.413,50.688-58.523v19.906l59.431,59.417
						c6.571,6.599,6.571,17.309,0,23.907c-6.599,6.585-17.322,6.585-23.893,0c-1.65-1.663-3.822-2.488-5.98-2.488
						c-13.968,0-25.337-11.355-25.337-25.323c-2.159,4.014-3.382,8.62-3.382,13.5c0,12.923,8.536,23.853,20.276,27.454v82.665
						h63.583c9.321,0,16.896,7.588,16.896,16.896v29.558c0,6.255-3.409,11.713-8.455,14.627V32.115
						c0-9.335-7.561-16.896-16.882-16.896v46.439h8.44c18.629,0,33.778-15.15,33.778-33.777V-1.676
						c0-18.629-15.149-33.778-33.778-33.778h-46.687v-58.454c11.452,3.326,24.334,0.48,33.352-8.538
						c13.185-13.17,13.185-34.602,0-47.773l-54.481-54.467v-30.424H102.471z"/>
				</g>
			</g>
		</g>
	</g>
</g>
</svg>
