<?xml version="1.0" encoding="utf-8"?>
<!-- Generator: Adobe Illustrator 16.0.0, SVG Export Plug-In . SVG Version: 6.00 Build 0)  -->
<!DOCTYPE svg PUBLIC "-//W3C//DTD SVG 1.1//EN" "http://www.w3.org/Graphics/SVG/1.1/DTD/svg11.dtd">
<svg version="1.1" id="Layer_1" xmlns="http://www.w3.org/2000/svg" xmlns:xlink="http://www.w3.org/1999/xlink" x="0px" y="0px"
	 width="132.509px" height="30px" viewBox="0 0 132.509 30" enable-background="new 0 0 132.509 30" xml:space="preserve">
<g>
	<defs>
		<path id="SVGID_1_" d="M9.354,20.916c0,1.313-1.068,2.38-2.382,2.38H6.465v3.664c0,0.942-0.645,1.735-1.518,1.962v-0.695
			c0-0.56-0.455-1.013-1.014-1.013V30H4.44c1.675,0,3.04-1.365,3.04-3.04v-2.687c1.633-0.246,2.888-1.658,2.888-3.357v-1.014
			c0-0.56-0.453-1.014-1.014-1.014V20.916z M17.377,14.513c-0.558,0-1.011,0.454-1.011,1.014h1.624c0.559,0,1.014,0.455,1.014,1.014
			v1.773c0,0.373-0.205,0.701-0.509,0.877v-0.625c-0.002-0.555-0.454-1.008-1.014-1.008v2.782h0.509
			c1.115,0,2.026-0.909,2.026-2.026v-1.773c0-1.118-0.911-2.028-2.026-2.028H17.377z M15.003,16.518l-3.72,3.719
			c0.394,0.395,1.036,0.395,1.432,0c0.016-0.016,0.946-0.947,0.946-0.947v0.613c0,1.313-1.067,2.383-2.38,2.383h-0.507v3.662
			c0,0.941-0.647,1.736-1.521,1.962v-0.695c0-0.562-0.454-1.015-1.013-1.015v2.787h0.507c1.676,0,3.041-1.363,3.041-3.039V23.26
			c1.631-0.244,2.888-1.656,2.888-3.357v-1.627l1.736-1.734l-0.359-0.359c-1.229-1.229-1.504-3.051-0.824-4.547
			C13.971,13,13.895,15.068,15.003,16.518 M11.7,10.193l-5.941,5.944c-1.856,0.109-3.33,1.655-3.33,3.537
			c0,1.615-1.008,2.994-2.429,3.544c1.908-0.055,3.443-1.622,3.443-3.544c0-1.014,0.599-1.89,1.462-2.294
			c-0.289,0.757-0.279,1.61,0.056,2.377c-0.036,2.808-1.897,5.173-4.451,5.968c3.067-0.31,5.467-2.904,5.467-6.051H5.964h0.013
			v-0.141L5.925,19.43c-0.397-0.816-0.233-1.797,0.409-2.438l6.081-6.081l0.717-0.718c-0.198-0.197-0.456-0.296-0.716-0.296
			S11.898,9.996,11.7,10.193 M31.287,0.337c-0.713,0-1.091,0.377-1.091,1.089v21.199c0,3.102-1.257,4.275-4.064,4.275h-0.166
			c-0.713,0-1.09,0.416-1.09,1.088v0.587c0,0.713,0.377,1.091,1.09,1.091h0.252c4.438,0,6.997-1.887,6.997-6.202V1.426
			c0-0.712-0.42-1.089-1.09-1.089H31.287z M49.339,0.337c-0.587,0-1.048,0.29-1.298,0.792l-7.71,14.291V1.426
			c0-0.712-0.42-1.089-1.132-1.089h-0.795c-0.713,0-1.089,0.377-1.089,1.089v27.149c0,0.713,0.376,1.091,1.089,1.091h0.795
			c0.712,0,1.132-0.378,1.132-1.091v-8.339l3.31-5.697l5.237,14.247c0.209,0.587,0.628,0.88,1.257,0.88h0.881
			c0.794,0,1.13-0.545,0.878-1.259l-6.409-17.092l5.614-9.68c0.419-0.755,0.084-1.298-0.755-1.298H49.339z M72.956,0.337
			c-0.67,0-1.05,0.294-1.177,1.003l-4.523,23.215L62.731,1.34c-0.126-0.709-0.545-1.003-1.171-1.003h-0.883
			c-0.753,0-1.129,0.419-1.005,1.215l5.656,27.149c0.127,0.672,0.544,0.965,1.217,0.965h1.256c0.67,0,1.09-0.293,1.217-0.965
			l5.654-27.149c0.126-0.796-0.253-1.215-1.005-1.215H72.956z M79.279,0.337c-0.713,0-1.09,0.377-1.09,1.089v27.149
			c0,0.713,0.377,1.091,1.09,1.091h0.797c0.712,0,1.13-0.378,1.13-1.091V1.426c0-0.712-0.418-1.089-1.13-1.089H79.279z
			 M88.432,3.059h3.814c2.809,0,4.023,1.175,4.023,4.233v15.42c0,3.056-1.215,4.229-4.023,4.229h-3.814V3.059z M86.506,0.337
			c-0.712,0-1.09,0.377-1.09,1.089v27.149c0,0.713,0.378,1.091,1.09,1.091h5.91c4.438,0,6.87-2.012,6.87-6.201V6.538
			c0-4.191-2.433-6.201-6.87-6.201H86.506z M104.441,0.337c-0.713,0-1.09,0.377-1.09,1.089v27.149c0,0.713,0.377,1.091,1.09,1.091
			h9.805c0.713,0,1.088-0.378,1.088-1.091v-0.544c0-0.713-0.375-1.09-1.088-1.09h-7.877v-10.81h6.453
			c0.71,0,1.088-0.379,1.088-1.089v-0.504c0-0.711-0.378-1.089-1.088-1.089h-6.453V3.059h7.75c0.714,0,1.091-0.376,1.091-1.089
			V1.426c0-0.712-0.377-1.089-1.091-1.089H104.441z M16.708,0c-2.515,0-4.561,2.047-4.561,4.561v3.364
			c0,0.662-0.423,1.225-1.015,1.433c0.161,0.057,0.33,0.088,0.509,0.088c0.813,0,1.475-0.637,1.517-1.442
			c0.001-0.026,0.001-0.053,0.001-0.079V4.561c0-1.783,1.325-3.264,3.042-3.511v1.195l3.567,3.564c0.393,0.397,0.393,1.04,0,1.436
			c-0.397,0.395-1.041,0.395-1.434,0c-0.1-0.1-0.229-0.15-0.359-0.15c-0.839,0-1.521-0.682-1.521-1.518
			c-0.13,0.239-0.202,0.515-0.202,0.808c0,0.776,0.512,1.432,1.217,1.648v4.96h3.814c0.559,0,1.014,0.456,1.014,1.013v1.774
			c0,0.375-0.205,0.703-0.507,0.877v-0.623c0-0.561-0.453-1.015-1.013-1.015v2.788h0.506c1.117,0,2.027-0.908,2.027-2.027v-1.774
			c0-1.117-0.91-2.026-2.027-2.026h-2.801V8.473c0.687,0.199,1.46,0.028,2.001-0.512c0.791-0.79,0.791-2.077,0-2.866l-3.27-3.268V0
			H16.708z M121.447,23.046V6.957c0-3.057,1.214-4.231,4.021-4.231c2.807,0,4.021,1.174,4.021,4.231v16.089
			c0,3.058-1.215,4.231-4.021,4.231C122.661,27.277,121.447,26.104,121.447,23.046 M125.301,0c-4.439,0-6.869,1.97-6.869,6.204
			v17.594c0,4.19,2.43,6.202,6.869,6.202h0.336c4.441,0,6.872-2.012,6.872-6.202V6.204c0-4.191-2.431-6.204-6.872-6.204H125.301z"/>
	</defs>
	<clipPath id="SVGID_2_">
		<use xlink:href="#SVGID_1_"  overflow="visible"/>
	</clipPath>
	
		<linearGradient id="SVGID_3_" gradientUnits="userSpaceOnUse" x1="-323.9473" y1="2758.5449" x2="-322.9473" y2="2758.5449" gradientTransform="matrix(164.2482 -193.5199 66.3606 478.9785 -129868.4922 -1383860.875)">
		<stop  offset="0" style="stop-color:#3E2C1A"/>
		<stop  offset="0.5103" style="stop-color:#836B45"/>
		<stop  offset="0.9991" style="stop-color:#D8B882"/>
		<stop  offset="1" style="stop-color:#D8B882"/>
	</linearGradient>
	<polygon clip-path="url(#SVGID_2_)" fill="url(#SVGID_3_)" points="18.595,164.216 136.082,25.791 113.914,-134.215 -3.573,4.21 	
		"/>
</g>
</svg>
