<svg xmlns="http://www.w3.org/2000/svg" width="16" height="11" viewBox="0 0 16 11">
    <g fill="none" fill-rule="evenodd">
        <path d="M-4-7h24v24H-4z"/>
        <path fill="#7E7E7E" fill-rule="nonzero" d="M8 3.3a2.191 2.191 0 0 0-2.182 2.2c0 1.215.977 2.2 2.182 2.2a2.191 2.191 0 0 0 2.182-2.2c0-1.215-.977-2.2-2.182-2.2zm0 5.867c-2.008 0-3.636-1.642-3.636-3.667S5.992 1.833 8 1.833s3.636 1.642 3.636 3.667S10.008 9.167 8 9.167zM8 0C4.364 0 1.258 2.28 0 5.5 1.258 8.72 4.364 11 8 11s6.742-2.28 8-5.5C14.742 2.28 11.636 0 8 0z"/>
    </g>
</svg>
